<?xml version="1.0" standalone="no"?>
<!DOCTYPE svg PUBLIC "-//W3C//DTD SVG 20010904//EN"
 "http://www.w3.org/TR/2001/REC-SVG-20010904/DTD/svg10.dtd">
<svg version="1.0" xmlns="http://www.w3.org/2000/svg"
 width="336.000000pt" height="336.000000pt" viewBox="0 0 336.000000 336.000000"
 preserveAspectRatio="xMidYMid meet">
<metadata>
Created by potrace 1.14, written by Peter Selinger 2001-2017
</metadata>
<g transform="translate(0.000000,336.000000) scale(0.100000,-0.100000)"
fill="#000000" stroke="none">
<path d="M1095 2380 c-33 -11 -89 -37 -125 -59 -58 -35 -65 -37 -68 -20 -2 13
-12 19 -28 19 -20 0 -24 5 -24 30 l0 30 -120 0 -120 0 -2 -707 c-2 -390 -2
-718 0 -730 3 -17 10 -23 29 -23 16 0 27 -7 30 -20 5 -19 14 -20 124 -20 l119
0 0 522 c0 503 1 523 20 563 27 55 83 111 145 143 46 25 60 27 170 27 111 0
124 -2 172 -27 55 -29 81 -59 116 -135 22 -47 22 -54 23 -553 1 -278 2 -513 3
-522 1 -16 14 -18 121 -18 l119 0 3 503 c3 495 3 503 26 558 27 68 92 137 158
170 43 21 63 24 159 24 100 0 115 -3 165 -27 58 -29 90 -67 119 -140 14 -38
16 -110 19 -565 l3 -523 119 0 120 0 0 529 c0 290 -4 550 -9 577 -34 178 -132
293 -290 340 -83 25 -221 29 -311 10 -105 -22 -167 -56 -256 -139 -70 -65 -78
-70 -88 -53 -36 61 -73 101 -120 131 -85 54 -145 70 -273 70 l-113 0 0 28 c0
25 -3 27 -37 26 -21 0 -65 -9 -98 -19z"/>
</g>
</svg>
